<?xml version="1.0" encoding="utf-8"?>
<!-- Generator: Adobe Illustrator 27.4.0, SVG Export Plug-In . SVG Version: 6.00 Build 0)  -->
<svg version="1.1" id="Layer_1" xmlns="http://www.w3.org/2000/svg" xmlns:xlink="http://www.w3.org/1999/xlink" x="0px" y="0px"
	 viewBox="0 0 30 30" style="enable-background:new 0 0 30 30;" xml:space="preserve">
<style type="text/css">
	.st0{fill:#FFFFFF;}
</style>
<g>
	<g>
		<path class="st0" d="M17.7,28c-2.8,0-5.5-1.1-7.5-3.1l0,0c0,0,0,0,0,0l-5-5c-2-2-3.1-4.7-3.1-7.5s1.1-5.5,3.1-7.5
			c0.5-0.5,1.2-0.5,1.7,0l5,5c0.2,0.2,0.3,0.5,0.3,0.8c0,0.3-0.1,0.6-0.3,0.8l-1.7,1.7c-0.2,0.2-0.3,0.5-0.3,0.8
			c0,0.3,0.1,0.6,0.3,0.8l5,5c0.2,0.2,0.5,0.3,0.8,0.3c0.3,0,0.6-0.1,0.8-0.3l1.7-1.7c0.5-0.5,1.2-0.5,1.7,0l5,5
			c0.5,0.5,0.5,1.2,0,1.7C23.2,26.9,20.5,28,17.7,28z M6,7.4c-1.1,1.4-1.6,3.1-1.6,5c0,2.2,0.9,4.3,2.4,5.8l5,5c0,0,0,0,0,0
			c1.6,1.6,3.6,2.4,5.8,2.4c1.8,0,3.5-0.6,5-1.6l-3.3-3.3l-0.8,0.8c-0.7,0.7-1.6,1-2.5,1c-0.9,0-1.8-0.4-2.5-1l-5-5
			c-0.7-0.7-1-1.6-1-2.5c0-0.9,0.4-1.8,1-2.5l0.8-0.8L6,7.4z"/>
	</g>
	<g>
		<path class="st0" d="M26.8,13.8c-0.7,0-1.2-0.5-1.2-1.2c0-4.6-3.7-8.3-8.3-8.3c-0.7,0-1.2-0.5-1.2-1.2S16.7,2,17.4,2
			C23.2,2,28,6.8,28,12.6C28,13.3,27.5,13.8,26.8,13.8z"/>
	</g>
	<g>
		<path class="st0" d="M22.1,13.8c-0.7,0-1.2-0.5-1.2-1.2c0-2-1.6-3.5-3.5-3.5c-0.7,0-1.2-0.5-1.2-1.2s0.5-1.2,1.2-1.2
			c3.3,0,5.9,2.7,5.9,5.9C23.3,13.3,22.7,13.8,22.1,13.8z"/>
	</g>
</g>
</svg>
