<?xml version="1.0" encoding="utf-8"?>
<!-- Generator: Adobe Illustrator 27.4.0, SVG Export Plug-In . SVG Version: 6.00 Build 0)  -->
<svg version="1.1" id="Layer_1" xmlns="http://www.w3.org/2000/svg" xmlns:xlink="http://www.w3.org/1999/xlink" x="0px" y="0px"
	 viewBox="0 0 30 30" style="enable-background:new 0 0 30 30;" xml:space="preserve">
<style type="text/css">
	.st0{fill:#FFFFFF;}
</style>
<g>
	<g>
		<path class="st0" d="M24,27H6c-0.6,0-1-0.4-1-1V10c0-0.6,0.4-1,1-1h18c0.6,0,1,0.4,1,1v16C25,26.6,24.6,27,24,27z M7,25h16V11H7
			V25z"/>
	</g>
	<g>
		<path class="st0" d="M20,13c-0.6,0-1-0.4-1-1V8c0-1.7-1.3-3-3-3h-2c-1.7,0-3,1.3-3,3v4c0,0.6-0.4,1-1,1s-1-0.4-1-1V8
			c0-2.8,2.2-5,5-5h2c2.8,0,5,2.2,5,5v4C21,12.6,20.6,13,20,13z"/>
	</g>
</g>
</svg>
