<?xml version="1.0" encoding="utf-8"?>
<!-- Generator: Adobe Illustrator 26.4.1, SVG Export Plug-In . SVG Version: 6.00 Build 0)  -->
<svg version="1.1" id="Layer_1" xmlns="http://www.w3.org/2000/svg" xmlns:xlink="http://www.w3.org/1999/xlink" x="0px" y="0px"
	 viewBox="0 0 50 50" style="enable-background:new 0 0 50 50;" xml:space="preserve">
<style type="text/css">
	.st0{fill-rule:evenodd;clip-rule:evenodd;}
</style>
<g>
	<path class="st0" d="M25,1C11.7,1,1,11.7,1,25s10.7,24,24,24s24-10.7,24-24S38.3,1,25,1z M19.7,12.3c1.4-0.1,1.8-0.1,5.3-0.1l0,0
		c3.5,0,3.9,0,5.3,0.1s2.3,0.3,3.1,0.6s1.6,0.8,2.3,1.5s1.1,1.4,1.5,2.3c0.3,0.8,0.5,1.7,0.6,3.1s0.1,1.8,0.1,5.3s0,3.9-0.1,5.3
		s-0.3,2.3-0.6,3.1s-0.8,1.6-1.5,2.3s-1.4,1.2-2.3,1.5c-0.8,0.3-1.7,0.5-3.1,0.6S28.5,38,25,38s-3.9,0-5.3-0.1s-2.3-0.3-3.1-0.6
		c-0.8-0.3-1.6-0.8-2.3-1.5s-1.1-1.4-1.5-2.3c-0.3-0.8-0.5-1.7-0.6-3.1s-0.1-1.8-0.1-5.3s0-3.9,0.1-5.3s0.3-2.3,0.6-3.1
		c0.3-0.8,0.8-1.6,1.5-2.3s1.4-1.1,2.3-1.5C17.4,12.6,18.4,12.3,19.7,12.3z"/>
	<path class="st0" d="M23.9,14.5c0.2,0,0.5,0,0.7,0H25c3.4,0,3.8,0,5.2,0.1c1.2,0.1,1.9,0.3,2.4,0.4c0.6,0.2,1,0.5,1.5,1
		s0.7,0.9,1,1.5c0.2,0.5,0.4,1.1,0.4,2.4c0.1,1.3,0.1,1.8,0.1,5.2s0,3.8-0.1,5.2c-0.1,1.2-0.3,1.9-0.4,2.4c-0.2,0.6-0.5,1-1,1.5
		c-0.4,0.4-0.9,0.7-1.5,1c-0.5,0.2-1.1,0.4-2.4,0.4c-1.3,0.1-1.8,0.1-5.2,0.1s-3.8,0-5.2-0.1c-1.2-0.1-1.9-0.3-2.4-0.4
		c-0.6-0.2-1-0.5-1.5-1c-0.4-0.4-0.7-0.9-1-1.5c-0.2-0.5-0.4-1.1-0.4-2.4c-0.1-1.3-0.1-1.8-0.1-5.2s0-3.8,0.1-5.2
		c0.1-1.2,0.3-1.9,0.4-2.4c0.2-0.6,0.5-1,1-1.5c0.4-0.4,0.9-0.7,1.5-1c0.5-0.2,1.1-0.4,2.4-0.4C21,14.5,21.5,14.5,23.9,14.5
		L23.9,14.5z M31.8,16.6c-0.8,0-1.5,0.7-1.5,1.5s0.7,1.5,1.5,1.5s1.5-0.7,1.5-1.5C33.4,17.3,32.7,16.6,31.8,16.6L31.8,16.6z
		 M18.4,25c0-3.6,2.9-6.6,6.6-6.6c3.6,0,6.6,2.9,6.6,6.6c0,3.6-2.9,6.6-6.6,6.6C21.4,31.6,18.4,28.6,18.4,25z"/>
	<path d="M25,20.7c2.4,0,4.3,1.9,4.3,4.3s-1.9,4.3-4.3,4.3s-4.3-1.9-4.3-4.3S22.6,20.7,25,20.7z"/>
</g>
</svg>
