<?xml version="1.0" encoding="utf-8"?>
<!-- Generator: Adobe Illustrator 27.4.0, SVG Export Plug-In . SVG Version: 6.00 Build 0)  -->
<svg version="1.1" id="Layer_1" xmlns="http://www.w3.org/2000/svg" xmlns:xlink="http://www.w3.org/1999/xlink" x="0px" y="0px"
	 viewBox="0 0 50 50" style="enable-background:new 0 0 50 50;" xml:space="preserve">
<style type="text/css">
	.st0{fill:#191919;}
	.st1{fill:#FFFFFF;}
</style>
<g>
	<path class="st0" d="M25,49L25,49C11.7,49,1,38.3,1,25v0C1,11.7,11.7,1,25,1h0c13.3,0,24,10.7,24,24v0C49,38.3,38.3,49,25,49z"/>
	<g>
		<g>
			<path class="st1" d="M19.2,14.5c0,1.4-1,2.5-2.7,2.5c-1.6,0-2.6-1.1-2.6-2.5c0-1.4,1-2.5,2.6-2.5S19.1,13,19.2,14.5z M14.1,34.7
				V18.9H19v15.9H14.1z"/>
			<path class="st1" d="M22.9,23.9c0-2-0.1-3.7-0.1-5.1h4.3l0.2,2.2h0.1c0.6-1,2.3-2.5,4.9-2.5c3.2,0,5.7,2.1,5.7,6.8v9.4h-4.9v-8.8
				c0-2-0.7-3.4-2.5-3.4c-1.4,0-2.2,0.9-2.5,1.8c-0.1,0.3-0.2,0.8-0.2,1.2v9.1h-4.9V23.9z"/>
		</g>
	</g>
</g>
</svg>
