<?xml version="1.0" encoding="utf-8"?>
<!-- Generator: Adobe Illustrator 27.4.0, SVG Export Plug-In . SVG Version: 6.00 Build 0)  -->
<svg version="1.1" id="Layer_1" xmlns="http://www.w3.org/2000/svg" xmlns:xlink="http://www.w3.org/1999/xlink" x="0px" y="0px"
	 viewBox="0 0 1898 618.8" style="enable-background:new 0 0 1898 618.8;" xml:space="preserve">
<style type="text/css">
	.st0{fill-rule:evenodd;clip-rule:evenodd;fill:#000001;}
	.st1{fill:none;stroke:#000001;stroke-width:0.5;stroke-miterlimit:2.6131;}
	.st2{fill:#FFFFFF;}
</style>
<g>
	<rect class="st0" width="1898" height="621.3"/>
	<rect class="st1" width="1898" height="621.3"/>
	<path class="st2" d="M1631.9,194.2v67.2h-150v-67.2H1631.9z M1383,525.9h98.9V374.8l150,151.2h98.8v-59.2L1624.1,360h106.6V95.4
		H1383V525.9z M977.6,525.9h98.9V291.9l150,151.2v82.9h98.8V95.4h-98.8v194.6l-150-151.2V95.4h-98.9V525.9z M821,194.2v67.2h-150
		v-67.2H821z M572.2,525.9h98.9V374.8l150,151.2h98.8v-59.2L813.2,360h106.6V95.4H572.2V525.9z M167.3,525.9H515v-98.9H266.1
		l0.6-232.9H515V95.4H167.3V525.9z"/>
	<path class="st2" d="M1775.8,493.5h2.7c3.8,0,6.1-0.2,7-0.4c0.9-0.3,1.6-0.8,2.2-1.5c0.5-0.7,0.8-1.6,0.8-2.5
		c0-0.9-0.3-1.7-0.8-2.4c-0.5-0.7-1.3-1.2-2.2-1.5c-0.9-0.3-3.3-0.5-7-0.5h-2.7V493.5z M1769.2,511.8v-32.2h6.6
		c6.1,0,9.6,0,10.3,0.1c2.2,0.2,3.9,0.6,5.1,1.3c1.2,0.7,2.2,1.7,3,3.1c0.8,1.4,1.2,2.9,1.2,4.6c0,2.3-0.8,4.3-2.3,6
		c-1.5,1.7-3.7,2.7-6.4,3.1c1,0.4,1.7,0.8,2.3,1.2c0.5,0.4,1.3,1.3,2.2,2.5c0.2,0.3,1,1.6,2.4,3.9l3.8,6.5h-8.1l-2.7-5.2
		c-1.8-3.5-3.3-5.7-4.5-6.6c-1.2-0.9-2.7-1.4-4.5-1.4h-1.7v13.2H1769.2z M1783,471.1c-4.2,0-8.2,1-12,3.1c-3.8,2.1-6.8,5.1-9.1,9
		c-2.2,3.9-3.3,8-3.3,12.3c0,4.3,1.1,8.3,3.2,12.2c2.2,3.9,5.2,6.9,9,9c3.9,2.2,7.9,3.2,12.1,3.2c4.3,0,8.3-1.1,12.2-3.2
		c3.8-2.2,6.9-5.2,9-9c2.2-3.9,3.2-7.9,3.2-12.2c0-4.3-1.1-8.4-3.3-12.3c-2.2-3.9-5.2-6.9-9.1-9
		C1791.2,472.2,1787.2,471.1,1783,471.1z M1783,465.2c5.2,0,10.2,1.3,15,3.9c4.8,2.6,8.6,6.3,11.3,11.2c2.7,4.9,4.1,10,4.1,15.3
		c0,5.3-1.3,10.3-4,15.1c-2.7,4.8-6.4,8.6-11.2,11.2c-4.8,2.7-9.9,4-15.1,4c-5.3,0-10.3-1.3-15.1-4c-4.8-2.7-8.5-6.4-11.2-11.2
		c-2.7-4.8-4-9.8-4-15.1c0-5.3,1.4-10.4,4.1-15.3c2.7-4.9,6.5-8.6,11.3-11.2C1772.8,466.5,1777.8,465.2,1783,465.2z"/>
</g>
</svg>
