<?xml version="1.0" encoding="utf-8"?>
<!-- Generator: Adobe Illustrator 27.4.0, SVG Export Plug-In . SVG Version: 6.00 Build 0)  -->
<svg version="1.1" id="Layer_1" xmlns="http://www.w3.org/2000/svg" xmlns:xlink="http://www.w3.org/1999/xlink" x="0px" y="0px"
	 viewBox="0 0 30 30" style="enable-background:new 0 0 30 30;" xml:space="preserve">
<g>
	<g>
		<path d="M15,17c-3.9,0-7-3.1-7-7s3.1-7,7-7s7,3.1,7,7S18.9,17,15,17z M15,5c-2.8,0-5,2.2-5,5s2.2,5,5,5c2.8,0,5-2.2,5-5
			S17.8,5,15,5z"/>
	</g>
	<g>
		<path d="M26,27c-0.6,0-1-0.4-1-1c0-2.6-0.7-4.9-2-6.4c-1.4-1.7-3.4-2.6-6-2.6h-4c-2.6,0-4.6,0.9-6,2.6c-1.3,1.6-2,3.8-2,6.4
			c0,0.6-0.4,1-1,1s-1-0.4-1-1c0-3.1,0.8-5.8,2.4-7.7C7.2,16.1,9.8,15,13,15h4c3.2,0,5.8,1.1,7.6,3.3c1.6,1.9,2.4,4.6,2.4,7.7
			C27,26.6,26.6,27,26,27z"/>
	</g>
</g>
</svg>
