<?xml version="1.0" encoding="utf-8"?>
<!-- Generator: Adobe Illustrator 27.4.0, SVG Export Plug-In . SVG Version: 6.00 Build 0)  -->
<svg version="1.1" id="Layer_1" xmlns="http://www.w3.org/2000/svg" xmlns:xlink="http://www.w3.org/1999/xlink" x="0px" y="0px"
	 viewBox="0 0 30 30" style="enable-background:new 0 0 30 30;" xml:space="preserve">
<g>
	<g>
		<path d="M3,13C3,7.5,7.5,3,13,3s10,4.5,10,10s-4.5,10-10,10S3,18.5,3,13z M5,13c0,4.4,3.6,8,8,8s8-3.6,8-8s-3.6-8-8-8S5,8.6,5,13z
			"/>
	</g>
	<g>
		<path d="M26,27c0.3,0,0.5-0.1,0.7-0.3c0.4-0.4,0.4-1,0-1.4l-6.6-6.6c-0.4-0.4-1-0.4-1.4,0c-0.4,0.4-0.4,1,0,1.4l6.6,6.6
			C25.5,26.9,25.7,27,26,27z"/>
	</g>
</g>
</svg>
