<?xml version="1.0" encoding="utf-8"?>
<!-- Generator: Adobe Illustrator 26.4.1, SVG Export Plug-In . SVG Version: 6.00 Build 0)  -->
<svg version="1.1" id="Layer_1" xmlns="http://www.w3.org/2000/svg" xmlns:xlink="http://www.w3.org/1999/xlink" x="0px" y="0px"
	 viewBox="0 0 50 50" style="enable-background:new 0 0 50 50;" xml:space="preserve">
<style type="text/css">
	.st0{fill-rule:evenodd;clip-rule:evenodd;}
</style>
<g>
	<path class="st0" d="M25,1C11.7,1,1,11.7,1,25s10.7,24,24,24s24-10.7,24-24S38.3,1,25,1z M35,16.7c1.1,0.3,2,1.2,2.3,2.3
		c0.5,2,0.5,6.3,0.5,6.3s0,4.3-0.5,6.3c-0.3,1.1-1.2,2-2.3,2.3c-2,0.5-10,0.5-10,0.5s-8,0-10-0.5c-1.1-0.3-2-1.2-2.3-2.3
		c-0.5-2-0.5-6.3-0.5-6.3s0-4.3,0.5-6.3c0.3-1.1,1.2-2,2.3-2.3c2-0.5,10-0.5,10-0.5S33,16.2,35,16.7z"/>
	<path d="M22.6,29.8v-8l6.4,4L22.6,29.8z"/>
</g>
</svg>
